<svg xmlns="http://www.w3.org/2000/svg" width="264.985" height="67.598" viewBox="0 0 264.985 67.598"><g transform="translate(-1379.465 528.88)"><g transform="translate(1440.348 -504.339)"><path d="M1544.127-451.247c0-6.558,5.06-11.213,12.146-11.213,4.575,0,8.176,1.983,9.754,5.544l-4.89,2.632a5.429,5.429,0,0,0-4.891-3c-3.2,0-5.709,2.223-5.709,6.033s2.494,6.038,5.713,6.038a5.341,5.341,0,0,0,4.891-3l4.89,2.667c-1.578,3.481-5.179,5.5-9.754,5.5C1549.187-440.035,1544.127-444.69,1544.127-451.247Z" transform="translate(-1544.127 462.478)" fill="#34c47c"/><path d="M1626.743-462.46v5.829c-.529-.04-.934-.08-1.418-.08-3.481,0-5.78,1.9-5.78,6.073v10.283h-6.326V-462.14h6.033v2.872C1620.789-461.366,1623.381-462.46,1626.743-462.46Z" transform="translate(-1587.672 462.478)" fill="#34c47c"/><path d="M1655.074-451.247c0-6.558,5.064-11.213,12-11.213s11.941,4.655,11.941,11.213-5.019,11.213-11.941,11.213S1655.074-444.69,1655.074-451.247Zm17.53,0c0-3.766-2.387-6.033-5.544-6.033s-5.588,2.267-5.588,6.033,2.419,6.038,5.579,6.038,5.545-2.272,5.545-6.038Z" transform="translate(-1614.052 462.478)" fill="#34c47c"/><path d="M1754.886-451.247c0,6.842-4.739,11.213-10.852,11.213a8.461,8.461,0,0,1-6.557-2.627V-432.5h-6.314v-29.632h6.029v2.507a8.472,8.472,0,0,1,6.842-2.832C1750.156-462.46,1754.886-458.1,1754.886-451.247Zm-6.4,0c0-3.766-2.387-6.033-5.549-6.033s-5.544,2.29-5.544,6.033,2.387,6.038,5.544,6.038S1748.489-447.482,1748.489-451.247Z" transform="translate(-1662.007 462.478)" fill="#34c47c"/><path d="M1801.024-442.382l2.1-4.53a14.93,14.93,0,0,0,7.558,2.1c2.917,0,4-.769,4-1.983,0-3.557-13.159.08-13.159-8.625,0-4.13,3.725-7.042,10.083-7.042a17.927,17.927,0,0,1,8.381,1.9l-2.107,4.495a12.475,12.475,0,0,0-6.274-1.623c-2.836,0-4.05.889-4.05,2.027,0,3.721,13.156.12,13.156,8.7,0,4.05-3.761,6.922-10.279,6.922A18.643,18.643,0,0,1,1801.024-442.382Z" transform="translate(-1706.037 462.478)" fill="#34c47c"/><path d="M1893.85-461.582l-7.9,21.785h-6.073l-4.89-13.524-5.059,13.524h-6.082L1856-461.582h5.949l5.144,14.734,5.335-14.734h5.335l5.179,14.734,5.3-14.734Z" transform="translate(-1740.685 461.924)" fill="#34c47c"/><path d="M1981.259-452.8v12.448h-5.908v-2.712c-1.178,1.983-3.441,3.032-6.642,3.032-5.1,0-8.136-2.832-8.136-6.6,0-3.846,2.712-6.517,9.336-6.517h5.02c0-2.712-1.619-4.29-5.02-4.29a10.473,10.473,0,0,0-6.255,1.969l-2.267-4.41a16.728,16.728,0,0,1,9.394-2.632C1977.436-462.49,1981.259-459.414,1981.259-452.8Zm-6.318,5.548v-2.223h-4.33c-2.957,0-3.885,1.094-3.885,2.552,0,1.578,1.334,2.627,3.557,2.627a4.694,4.694,0,0,0,4.659-2.974Z" transform="translate(-1806.594 462.508)" fill="#34c47c"/><path d="M2055.7-451.247c0,6.842-4.739,11.213-10.852,11.213a8.462,8.462,0,0,1-6.558-2.627V-432.5h-6.313v-29.632H2038v2.507a8.472,8.472,0,0,1,6.842-2.832C2050.956-462.46,2055.7-458.1,2055.7-451.247Zm-6.4,0c0-3.766-2.388-6.033-5.549-6.033s-5.544,2.267-5.544,6.033,2.387,6.038,5.544,6.038S2049.3-447.482,2049.3-451.247Z" transform="translate(-1851.593 462.478)" fill="#34c47c"/></g><g transform="translate(1379.465 -528.88)"><path d="M1398.806-461.563l26.279-29.5-8.136-1.122,18.468-36.693s6.218,35.735-4.266,52.027c0,0-6.475,11.793-21.271,8.744l-10.578,6.828Z" transform="translate(-1391.655 528.88)" fill="#34c47c"/><path d="M1423.228-528.88c-.148,1.171-36.353,19.912-42.264,33.8-6.443,15.135,9.986,24.508,9.986,24.508l9.485-15.351-9.352-1.217,24.679-26.906Z" transform="translate(-1379.465 528.88)" fill="#239b5c"/></g></g></svg>