<?xml version="1.0" encoding="UTF-8"?>
<!DOCTYPE svg  PUBLIC '-//W3C//DTD SVG 1.1//EN'  'http://www.w3.org/Graphics/SVG/1.1/DTD/svg11.dtd'>
<svg width="800px" height="800px" clip-rule="evenodd" fill="#000000" fill-rule="evenodd" stroke-linejoin="round" stroke-miterlimit="2" version="1.1" viewBox="0 0 64 64" xml:space="preserve" xmlns="http://www.w3.org/2000/svg" xmlns:serif="http://www.serif.com/">

<rect x="-896" width="1280" height="800" fill="none"/>

<g serif:id="Icons">



































<path d="m36.026 20.058h-21.092c-1.65 0-2.989 1.339-2.989 2.989v25.964c0 1.65 1.339 2.989 2.989 2.989h26.024c1.65 0 2.989-1.339 2.989-2.989v-20.953h3.999v21.948c0 3.308-2.686 5.994-5.995 5.995h-28.01c-3.309 0-5.995-2.687-5.995-5.995v-27.954c0-3.309 2.686-5.995 5.995-5.995h22.085v4.001z"/>

<path d="m55.925 25.32h-4.005v-10.481l-27.894 27.893-2.832-2.832 27.895-27.895h-10.484v-4.005h17.318l2e-3 1e-3v17.319z"/>

































































</g>

</svg>
