<svg width="282" height="74" viewBox="0 0 282 74" fill="none" xmlns="http://www.w3.org/2000/svg">
<g clip-path="url(#clip0_2764_1590)">
<path d="M78.8161 19.9733C73.0321 19.9733 67.7794 20.8613 63.0409 22.6286V32.9365C67.3081 31.1692 72.338 30.2812 78.1134 30.2812C85.3626 30.2812 88.9786 33.5982 88.9786 40.2322C85.7739 39.7534 82.7663 39.5183 79.9643 39.5183C76.0226 39.5183 72.6122 39.971 69.716 40.8677C66.8197 41.7732 64.6347 42.8527 63.1523 44.1064C61.6699 45.3687 60.5045 46.8314 59.6391 48.4942C58.7822 50.1571 58.2509 51.55 58.0453 52.6557C57.8396 53.7614 57.7454 54.8409 57.7454 55.8943C57.7454 60.8568 59.5362 65.0792 63.1266 68.5442C66.7083 72.0092 72.2952 73.7504 79.8614 73.7504C87.1792 73.7504 92.6118 72.0266 96.1336 68.5703C99.6639 65.1227 101.429 60.9961 101.429 56.199V42.1127C101.429 34.9389 99.4926 29.4541 95.6109 25.6583C91.7378 21.8712 86.1424 19.9733 78.8161 19.9733ZM89.0815 54.7626C89.0815 60.0384 86.0138 62.6676 79.87 62.6676H79.7672C73.3234 62.6676 70.1016 59.8817 70.1016 54.3011C70.1358 49.7827 74.009 47.5191 81.7209 47.5191C83.7603 47.554 86.2109 47.7716 89.0815 48.1808V54.7626Z" fill="#3150FF"/>
<path d="M126.261 20.7916H113.914V72.9232H126.261V20.7916Z" fill="#3150FF"/>
<path d="M171.419 20.7915C168.471 20.2518 165.626 19.9732 162.884 19.9732C155.215 19.9732 149.346 22.228 145.258 26.7465C141.171 31.2649 139.132 37.7596 139.132 46.248C139.132 50.9144 139.714 55.0323 140.888 58.5931C142.062 62.1539 143.485 64.8527 145.155 66.6897C146.826 68.5267 148.797 70.0241 151.051 71.1907C153.313 72.3486 155.284 73.0625 156.972 73.3411C158.66 73.6197 160.365 73.7503 162.07 73.7503C169.397 73.7503 174.846 72.0265 178.411 68.5615C181.976 65.1052 183.758 60.9786 183.758 56.1728V0.741577H171.41V20.7915H171.419ZM171.419 57.3481C171.419 61.1004 168.308 62.9809 162.079 62.9809C158.163 62.9809 155.421 61.6141 153.844 58.8891C152.268 56.1641 151.488 51.7241 151.488 45.5863C151.488 39.7184 152.49 35.6179 154.504 33.2847C156.518 30.9515 159.44 29.7762 163.287 29.7762C166.303 29.811 169.011 30.0983 171.419 30.6468V57.3481Z" fill="#3150FF"/>
<path d="M218.607 19.8512C210.792 19.8512 204.794 22.167 200.604 26.7899C196.423 31.4128 194.332 38.0468 194.332 46.6832C194.332 55.3195 196.423 61.9535 200.604 66.5764C204.786 71.1993 210.784 73.5151 218.607 73.5151C226.43 73.5151 232.42 71.1993 236.61 66.5764C240.792 61.9535 242.883 55.3195 242.883 46.6832C242.883 38.0468 240.792 31.4128 236.61 26.7899C232.42 22.167 226.422 19.8512 218.607 19.8512ZM227.622 59.8205C225.676 62.0841 222.686 63.2159 218.633 63.2159C214.58 63.2159 211.581 62.0841 209.619 59.8205C207.656 57.557 206.679 53.1866 206.679 46.7093C206.679 40.232 207.656 35.8529 209.619 33.5719C211.581 31.2909 214.58 30.1504 218.633 30.1504C222.686 30.1504 225.676 31.2909 227.622 33.5719C229.567 35.8529 230.535 40.232 230.535 46.7093C230.535 53.1866 229.558 57.557 227.622 59.8205Z" fill="#3150FF"/>
<path d="M281.185 31.3258V20.5651H269.035V5.11194H256.687V20.5651H248.05V31.3258H256.687V56.2685C256.687 61.6401 258.144 65.8626 261.057 68.9184C263.97 71.9742 267.972 73.5064 273.053 73.5064C273.122 73.5064 273.208 73.5064 273.302 73.5064C276.147 73.5064 278.777 72.9928 281.185 71.9742V61.6314C279.48 62.3801 277.518 62.7545 275.307 62.7545C272.968 62.7545 271.331 62.3627 270.414 61.5792C269.497 60.7957 269.035 59.2808 269.035 57.0434V31.3258H281.185Z" fill="#3150FF"/>
<path d="M126.364 4.83356H113.708V16.3081H126.364V4.83356Z" fill="#3150FF"/>
<path d="M29.6223 32.9017C29.5538 32.8756 29.4852 32.8582 29.4167 32.8321C29.3996 32.8234 29.391 32.8146 29.3739 32.8146C29.3053 32.7885 29.2196 32.7624 29.1511 32.7363C29.0311 32.6928 28.9197 32.6579 28.7912 32.6144C25.098 31.3782 18.2087 29.2016 15.938 27.9567C13.5473 26.6508 12.3476 24.8399 12.3476 22.5241C12.3476 22.3674 12.3648 22.2281 12.3733 22.0801C13.4873 17.0132 17.3604 14.4711 24.0184 14.4711C30.4021 14.4711 36.803 15.4461 41.5158 17.3963V6.01751C36.2889 4.06736 29.6309 3.09229 23.2472 3.09229C16.1436 3.09229 11.0109 4.4156 6.96644 7.57589C2.32215 10.9974 0 16.0817 0 22.8288C0 26.6769 0.85688 29.8981 2.56207 32.4925C4.26726 35.0869 6.4266 37.0109 9.04009 38.2298C11.6536 39.4486 14.447 40.5891 17.4289 41.6251C20.4109 42.6612 23.2043 43.5666 25.8178 44.3327C28.4313 45.0988 30.8391 46.2829 32.5443 47.8761C34.1295 49.3561 34.9693 51.2018 35.0807 53.387C34.935 60.3953 27.6087 63.1116 19.9053 62.389C15.4924 61.9711 10.711 61.0918 6.68367 59.7859C6.58084 59.7163 6.46945 59.6553 6.36662 59.5857L6.34091 59.6727C4.6957 59.1243 3.18759 58.5148 1.89371 57.827L1.70519 69.1536C4.89279 70.6946 8.68876 71.8873 12.6647 72.6447C15.6381 73.3238 18.8599 73.7068 22.2018 73.7068C28.8512 73.7068 34.3266 72.2355 38.4482 69.6585C39.1166 69.2755 39.7507 68.8663 40.3162 68.431C44.4121 65.3142 46.6486 61.3356 47.1027 56.5647C47.2655 55.4938 47.3512 54.3795 47.3512 53.239C47.3512 43.0703 41.3445 37.3331 29.6223 32.9017Z" fill="#3150FF"/>
</g>
<defs>
<clipPath id="clip0_2764_1590">
<rect width="281.185" height="73" fill="white" transform="translate(0 0.741577)"/>
</clipPath>
</defs>
</svg>
