<?xml version="1.0" encoding="UTF-8"?>
<svg width="132px" height="30px" viewBox="0 0 132 30" version="1.1" xmlns="http://www.w3.org/2000/svg" xmlns:xlink="http://www.w3.org/1999/xlink">
    <!-- Generator: Sketch 46.1 (44463) - http://www.bohemiancoding.com/sketch -->
    <title>Logo</title>
    <desc>Created with Sketch.</desc>
    <defs>
        <polygon id="path-1" points="0 64 150 64 150 1 0 1"></polygon>
    </defs>
    <g id="Symbols" stroke="none" stroke-width="1" fill="none" fill-rule="evenodd">
        <g id="Logo" transform="translate(-18.000000, -17.000000)">
            <g>
                <polygon id="Fill-4" fill="#000000" points="35.0320721 18 35.0320721 28.2049589 26.9684872 28.2049589 26.9684872 18 18 18 18 47 26.9684872 47 26.9684872 36.7944763 35.0320721 36.7944763 35.0320721 47 44 47 44 18"></polygon>
                <path d="M63.0186945,38.1106686 C59.6497703,38.1106686 57.2970479,35.5974395 57.2970479,31.9997155 C57.2970479,28.4014225 59.6497703,25.8887624 63.0186945,25.8887624 C66.390409,25.8887624 68.7431314,28.4014225 68.7431314,31.9997155 C68.7431314,35.5974395 66.390409,38.1106686 63.0186945,38.1106686 M63.0186945,17 C54.4565933,17 48,23.4472262 48,31.9997155 C48,40.5510669 54.4565933,47 63.0186945,47 C71.559032,47 78,40.5510669 78,31.9997155 C78,23.4472262 71.559032,17 63.0186945,17" id="Fill-6" fill="#000000"></path>
                <path d="M90.1477467,26.0163612 L92.740445,26.0163612 C93.8465488,26.0163612 95.8528237,26.9331139 95.8528237,29.2540854 C95.8528237,31.575057 93.8465488,32.4918097 92.740445,32.4918097 L90.1477467,32.4918097 L90.1477467,26.0163612 Z M93.2795208,18 L81,18 L81,47 L90.1477467,47 L90.1477467,40.5098654 L93.2795208,40.5098654 C100.179692,40.5098654 105,35.8984243 105,29.2941898 C105,22.6447673 100.179692,18 93.2795208,18 L93.2795208,18 Z" id="Fill-8" fill="#000000"></path>
                <mask id="mask-2" fill="white">
                    <use xlink:href="#path-1"></use>
                </mask>
                <g id="Clip-11"></g>
                <polygon id="Fill-10" fill="#000000" mask="url(#mask-2)" points="108 47 117 47 117 18 108 18"></polygon>
                <polygon id="Fill-12" fill="#000000" mask="url(#mask-2)" points="141.221758 18 141.221758 32.0650734 129.361943 18 122 18 122 47 130.740024 47 130.740024 32.4983055 142.599839 47 150 47 150 18"></polygon>
            </g>
        </g>
    </g>
</svg>